<svg width="37" height="34" xmlns="http://www.w3.org/2000/svg" xmlns:sketch="http://www.bohemiancoding.com/sketch/ns"><title>Slice 1</title><g sketch:type="MSLayerGroup" transform="translate(2 2)" fill="none"><g id="Page 1" transform="translate(0 1)" fill-opacity=".45" fill="#0A0D19" sketch:type="MSShapeGroup"><path d="M13 16c-.061 0-.097-.393-.097-.599 0-.138.03-.401.058-.401h-4.958c.041 0 .071.322.071.489 0 .175-.029.511-.074.511h5" id="Fill 1" opacity=".339"/><path d="M19.391 19c-.411.297-.878.521-1.391.664l2.623 4.336c.406-.304.869-.537 1.377-.688l-2.609-4.312" id="Fill 2" opacity=".339"/><path d="M20.041 15c.027 0 .056.264.056.401 0 .206-.038.599-.097.599h5c-.043 0-.072-.336-.072-.511 0-.167.03-.489.069-.489h-4.957" id="Fill 3" opacity=".339"/><path d="M15 11.201l-2.588-4.201c-.421.291-.898.502-1.412.625l2.696 4.375c.38-.341.818-.614 1.304-.799" id="Fill 4" opacity=".339"/><path d="M26.794 19l-2.794 4.364c.485.136.933.351 1.323.636l2.677-4.183c-.454-.203-.866-.477-1.206-.817" id="Fill 5" opacity=".339"/><path d="M14.628 19l-2.628 4.327c.512.148.978.375 1.388.673l2.612-4.307c-.507-.154-.969-.389-1.372-.693" id="Fill 6" opacity=".339"/><path d="M10 23.381l-2.788-4.381c-.343.342-.754.619-1.212.824l2.658 4.176c.398-.281.848-.488 1.342-.619" id="Fill 7" opacity=".339"/><path d="M19.309 12l2.691-4.392c-.517-.115-1-.32-1.429-.608l-2.571 4.195c.489.186.926.462 1.309.805" id="Fill 8" opacity=".339"/><path d="M19 26h-5c.211 0 .343 1 .384 1h4.231c.037 0 .169-1 .384-1" id="Fill 9" opacity=".339"/><path d="M6.351 12l2.649-4.16c-.453-.211-.858-.494-1.197-.84l-2.803 4.401c.495.124.95.324 1.351.599" id="Fill 10" opacity=".339"/><path d="M14 3c.108 0 .184.492.184.757.002.083-.025.243-.038.243h4.708c-.013 0-.037-.16-.037-.243 0-.265.075-.757.183-.757h-5" id="Fill 11" opacity=".339"/><path d="M24 7.852l2.658 4.148c.399-.272.851-.472 1.342-.593l-2.822-4.407c-.332.349-.729.637-1.178.852" id="Fill 12" opacity=".339"/><path d="M3.912 11.249c2.161 0 3.912 1.745 3.912 3.897 0 2.152-1.751 3.897-3.912 3.897s-3.912-1.745-3.912-3.897c0-2.152 1.751-3.897 3.912-3.897" id="Fill 13"/><path d="M10.489.366c2.161 0 3.912 1.745 3.912 3.897 0 2.152-1.751 3.897-3.912 3.897s-3.912-1.745-3.912-3.897c0-2.152 1.751-3.897 3.912-3.897" id="Fill 14"/><path d="M26.42 4.263c0 2.153-1.748 3.897-3.915 3.897-2.163 0-3.911-1.744-3.911-3.897.003-2.153 1.748-3.896 3.911-3.896 2.167 0 3.915 1.742 3.915 3.896" id="Fill 15"/><path d="M16.535 11.125c2.161 0 3.912 1.745 3.912 3.897 0 2.152-1.751 3.899-3.912 3.899s-3.912-1.747-3.912-3.899 1.751-3.897 3.912-3.897" id="Fill 16"/><path d="M14.401 26.032c0 2.149-1.751 3.893-3.912 3.893-2.163 0-3.912-1.742-3.912-3.893 0-2.153 1.75-3.899 3.912-3.899 2.161.001 3.912 1.745 3.912 3.899" id="Fill 17"/><path d="M26.42 26.032c0 2.151-1.748 3.893-3.915 3.893-2.163 0-3.911-1.74-3.911-3.893 0-2.153 1.748-3.9 3.911-3.9 2.167.001 3.915 1.747 3.915 3.9" id="Fill 18"/><path d="M29.158 11.249c2.16 0 3.912 1.745 3.912 3.897 0 2.152-1.753 3.897-3.912 3.897-2.161 0-3.911-1.745-3.911-3.897 0-2.152 1.75-3.897 3.911-3.897" id="Fill 19"/></g><g sketch:type="MSShapeGroup"><path d="M13 16c-.061 0-.097-.393-.097-.599 0-.138.03-.401.058-.401h-4.958c.041 0 .071.322.071.489 0 .175-.029.511-.074.511h5" opacity=".339" fill="#ACACB2"/><path d="M19.391 19c-.411.297-.878.521-1.391.664l2.623 4.336c.406-.304.869-.537 1.377-.688l-2.609-4.312" opacity=".339" fill="#ACACB2"/><path d="M20.041 15c.027 0 .056.264.056.401 0 .206-.038.599-.097.599h5c-.043 0-.072-.336-.072-.511 0-.167.03-.489.069-.489h-4.957" opacity=".339" fill="#ACACB2"/><path d="M15 11.201l-2.588-4.201c-.421.291-.898.502-1.412.625l2.696 4.375c.38-.341.818-.614 1.304-.799" opacity=".339" fill="#ACACB2"/><path d="M26.794 19l-2.794 4.364c.485.136.933.351 1.323.636l2.677-4.183c-.454-.203-.866-.477-1.206-.817" opacity=".339" fill="#ACACB2"/><path d="M14.628 19l-2.628 4.327c.512.148.978.375 1.388.673l2.612-4.307c-.507-.154-.969-.389-1.372-.693" opacity=".339" fill="#ACACB2"/><path d="M10 23.381l-2.788-4.381c-.343.342-.754.619-1.212.824l2.658 4.176c.398-.281.848-.488 1.342-.619" opacity=".339" fill="#ACACB2"/><path d="M19.309 12l2.691-4.392c-.517-.115-1-.32-1.429-.608l-2.571 4.195c.489.186.926.462 1.309.805" opacity=".339" fill="#ACACB2"/><path d="M19 26h-5c.211 0 .343 1 .384 1h4.231c.037 0 .169-1 .384-1" opacity=".339" fill="#ACACB2"/><path d="M6.351 12l2.649-4.16c-.453-.211-.858-.494-1.197-.84l-2.803 4.401c.495.124.95.324 1.351.599" opacity=".339" fill="#ACACB2"/><path d="M14 3c.108 0 .184.492.184.757.002.083-.025.243-.038.243h4.708c-.013 0-.037-.16-.037-.243 0-.265.075-.757.183-.757h-5" opacity=".339" fill="#ACACB2"/><path d="M24 7.852l2.658 4.148c.399-.272.851-.472 1.342-.593l-2.822-4.407c-.332.349-.729.637-1.178.852" opacity=".339" fill="#ACACB2"/><path d="M3.912 11.249c2.161 0 3.912 1.745 3.912 3.897 0 2.152-1.751 3.897-3.912 3.897s-3.912-1.745-3.912-3.897c0-2.152 1.751-3.897 3.912-3.897" fill="#007DB5"/><path d="M10.489.366c2.161 0 3.912 1.745 3.912 3.897 0 2.152-1.751 3.897-3.912 3.897s-3.912-1.745-3.912-3.897c0-2.152 1.751-3.897 3.912-3.897" fill="#0090B1"/><path d="M26.42 4.263c0 2.153-1.748 3.897-3.915 3.897-2.163 0-3.911-1.744-3.911-3.897.003-2.153 1.748-3.896 3.911-3.896 2.167 0 3.915 1.742 3.915 3.896" fill="#00B27C"/><path d="M16.535 11.125c2.161 0 3.912 1.745 3.912 3.897 0 2.152-1.751 3.899-3.912 3.899s-3.912-1.747-3.912-3.899 1.751-3.897 3.912-3.897" fill="#00A67E"/><path d="M14.401 26.032c0 2.149-1.751 3.893-3.912 3.893-2.163 0-3.912-1.742-3.912-3.893 0-2.153 1.75-3.899 3.912-3.899 2.161.001 3.912 1.745 3.912 3.899" fill="#009B9D"/><path d="M26.42 26.032c0 2.151-1.748 3.893-3.915 3.893-2.163 0-3.911-1.74-3.911-3.893 0-2.153 1.748-3.9 3.911-3.9 2.167.001 3.915 1.747 3.915 3.9" fill="#67AE3E"/><path d="M29.158 11.249c2.16 0 3.912 1.745 3.912 3.897 0 2.152-1.753 3.897-3.912 3.897-2.161 0-3.911-1.745-3.911-3.897 0-2.152 1.75-3.897 3.911-3.897" fill="#A1BF2F"/></g></g></svg>