<?xml version="1.0" encoding="UTF-8" standalone="no"?>
<!-- Created with Inkscape (http://www.inkscape.org/) -->

<svg
   xmlns:dc="http://purl.org/dc/elements/1.1/"
   xmlns:cc="http://creativecommons.org/ns#"
   xmlns:rdf="http://www.w3.org/1999/02/22-rdf-syntax-ns#"
   xmlns:svg="http://www.w3.org/2000/svg"
   xmlns="http://www.w3.org/2000/svg"
   version="1.1"
   width="668.54248"
   height="82.308769"
   id="svg2">
  <defs
     id="defs4" />
  <metadata
     id="metadata7">
    <rdf:RDF>
      <cc:Work
         rdf:about="">
        <dc:format>image/svg+xml</dc:format>
        <dc:type
           rdf:resource="http://purl.org/dc/dcmitype/StillImage" />
        <dc:title></dc:title>
      </cc:Work>
    </rdf:RDF>
  </metadata>
  <g
     transform="translate(-38.0625,-276.82804)"
     id="layer1">
    <g
       id="g3000">
      <path
         d="m 565.77011,276.82907 c -3.20477,0.034 -6.31562,1.37215 -9.00398,3.87762 -2.60792,2.43059 -4.04633,5.36127 -4.06244,8.2646 -0.007,1.15981 0.0232,1.31992 0.42311,2.13187 0.63726,1.2945 1.64343,2.04468 3.2286,2.40707 1.03618,0.23689 2.83565,0.15108 4.20623,-0.20126 3.7001,-0.95121 7.58048,-3.86491 9.34489,-7.01998 0.91841,-1.6423 1.49756,-4.00645 1.31856,-5.38514 -0.17473,-1.34612 -0.95541,-2.61145 -2.03738,-3.30253 -0.9319,-0.59522 -1.79588,-0.78937 -3.41759,-0.77225 z m 55.06712,24.13243 c -0.54138,4.8e-4 -1.10832,0.0317 -1.70056,0.0904 -4.95246,0.49084 -9.02016,2.18693 -13.73595,5.72607 -1.4797,1.11048 -4.72705,3.99872 -4.83471,4.30071 -0.16292,0.45677 -0.16978,-0.0826 -0.0164,-1.08031 0.46252,-3.00875 -0.0296,-5.22727 -1.49928,-6.75708 -0.73441,-0.76455 -2.50751,-1.6579 -3.90225,-1.96757 -3.4544,-0.76693 -8.34396,-0.0284 -13.05822,1.97167 -2.1918,0.92983 -9.61917,4.82226 -10.63061,5.56998 -0.26174,0.19348 -0.25343,0.22143 0.56685,1.65538 l 0.83798,1.46232 1.10496,-0.44362 c 1.79269,-0.71982 3.00725,-0.99232 4.55125,-1.0146 1.23219,-0.0177 1.45067,0.0188 2.03739,0.31218 0.8756,0.43781 1.25003,1.14132 1.24874,2.35781 0,1.46885 -0.41369,2.77754 -1.78274,5.66854 -2.45177,5.17737 -5.00601,10.94344 -6.24363,14.09746 l -0.76402,1.95113 -1.09261,1.01869 c -4.43164,4.14073 -7.62707,6.51888 -11.33714,8.43301 -3.35969,1.73335 -5.80185,2.40644 -8.7493,2.4153 -1.47771,0.004 -1.92836,-0.041 -2.69459,-0.28344 -1.21678,-0.38517 -1.81198,-0.81525 -2.17296,-1.5609 -0.25867,-0.53431 -0.28526,-0.74305 -0.21769,-1.68003 0.0887,-1.22985 0.56784,-2.99473 1.19944,-4.41982 0.24028,-0.54222 2.75683,-6.04318 5.59048,-12.22438 2.83366,-6.18119 5.38408,-11.91455 5.66855,-12.73781 0.6365,-1.8419 1.03032,-3.73278 1.12553,-5.39335 0.21557,-3.761 -1.52596,-6.09933 -5.31121,-7.13498 -1.34016,-0.36667 -4.71308,-0.39322 -6.60512,-0.0534 -1.84525,0.33143 -4.09036,0.94882 -5.6521,1.5568 -2.12605,0.82767 -10.4586,5.12839 -11.66161,6.01771 -0.26172,0.19348 -0.253,0.22307 0.57095,1.6636 l 0.84208,1.46642 1.13782,-0.46005 c 2.16128,-0.8715 4.33264,-1.24023 5.75892,-0.97763 0.96505,0.17769 1.35596,0.44511 1.75397,1.20356 0.26985,0.51423 0.29513,0.7127 0.23413,1.63894 -0.0381,0.57835 -0.21438,1.55539 -0.39433,2.17295 -0.18965,0.65083 -2.67281,6.2869 -5.90681,13.40736 -3.06868,6.75649 -5.7647,12.82989 -5.99305,13.49774 -1.23832,3.62166 -1.37646,6.80438 -0.41487,9.59957 1.29357,3.76027 4.40224,6.28057 8.5398,6.9255 2.02109,0.31503 4.38279,0.19581 7.57039,-0.39023 4.17788,-0.7681 8.51119,-2.49077 12.88158,-5.11813 4.01127,-2.41145 6.68407,-4.46996 10.7949,-8.31389 l 1.85258,-1.73342 -0.24647,1.20765 c -0.68267,3.31633 -0.76519,5.98929 -0.24237,8.06331 0.86049,3.41338 3.34203,5.90992 6.33401,6.37507 0.92382,0.14363 1.03165,0.13669 1.58554,-0.13144 0.61597,-0.29818 1.20802,-1.0287 2.0374,-2.51389 0.22205,-0.39761 3.54937,-7.46605 7.39377,-15.70764 3.84441,-8.24158 7.20078,-15.36918 7.45951,-15.83909 2.47059,-4.48812 6.59929,-8.73433 10.21984,-10.50737 3.77084,-1.84667 8.47061,-2.37306 11.01253,-1.23229 2.14644,0.96322 2.9049,3.31269 1.81974,5.63158 -0.52827,1.12883 -1.80076,2.40333 -3.33949,3.34363 l -1.12137,0.68598 0.59964,1.46643 c 0.33093,0.80607 0.64525,1.51584 0.69831,1.57733 0.14947,0.173 3.58811,-1.04447 5.0114,-1.7745 2.52518,-1.29533 4.49351,-2.77953 6.51873,-4.91275 2.44863,-2.57898 3.72864,-5.25448 4.12823,-8.61784 0.3126,-2.63073 -0.51745,-4.97337 -2.44408,-6.90496 -1.79037,-1.79502 -3.99795,-2.6485 -6.92128,-2.64533 z m -115.16613,0.004 c -0.9471,0.004 -1.702,0.0948 -2.04971,0.27932 -0.46109,0.24473 -0.82563,0.81454 -0.82563,1.29801 0,0.16733 0.11154,0.51206 0.24646,0.76402 0.49986,0.93348 1.61613,6.05215 2.00864,9.20114 0.22783,1.82785 0.22538,6.9431 -0.004,8.47819 -1.20539,8.0627 -4.55452,15.02814 -9.64474,20.06175 -3.27117,3.23477 -6.64824,4.97813 -10.81135,5.57407 -4.11402,0.58894 -6.75045,-0.30996 -7.92365,-2.69871 -0.3208,-0.65322 -0.35431,-0.8576 -0.34503,-2.10312 0.0153,-2.05671 0.52199,-4.37646 1.58555,-7.21714 0.26008,-0.69465 1.80505,-4.07068 3.42988,-7.50467 4.282,-9.0498 4.47822,-9.52315 5.22494,-12.42564 0.82569,-3.20956 0.88201,-5.24341 0.19304,-7.24589 -1.16434,-3.38422 -4.60491,-6.10703 -8.10849,-6.42026 -1.91325,-0.17104 -2.29305,0.37389 -6.07932,8.69179 -5.16474,11.3462 -8.89607,19.41925 -9.98981,21.60623 -3.20372,6.40596 -6.35896,10.841 -9.20524,12.93908 -2.23998,1.65117 -5.1078,2.57019 -7.99349,2.56729 -3.62947,-0.004 -5.60849,-1.30771 -6.28059,-4.14873 -0.44556,-1.88342 0.0384,-5.89807 1.06799,-8.85608 0.9436,-2.71093 1.49626,-3.60818 7.36092,-11.98201 3.68667,-5.26403 4.54844,-6.91929 5.29474,-10.17054 0.95137,-4.14455 0.51861,-7.02633 -1.30212,-8.67125 -0.69129,-0.62455 -2.39174,-1.42331 -3.60242,-1.69236 -3.29754,-0.7328 -7.82295,-0.14006 -12.35579,1.62253 -2.13183,0.82896 -10.24118,5.0119 -11.46856,5.91502 -0.26387,0.19415 -0.25685,0.21962 0.50524,1.65538 l 0.77635,1.4541 1.47874,-0.58329 c 1.17715,-0.4669 1.69337,-0.60047 2.53032,-0.65311 2.0064,-0.12619 3.45133,0.45753 4.01729,1.62663 0.24332,0.50264 0.27674,0.74197 0.21359,1.49518 -0.0989,1.17935 -0.29599,1.54739 -2.51798,4.60057 -4.13252,5.67835 -5.54505,7.8574 -6.85156,10.5813 -1.85401,3.86532 -2.66933,7.31792 -2.88768,12.22437 -0.18237,4.09779 0.5138,7.56989 2.0415,10.17464 1.08244,1.84557 3.1752,3.86696 5.23315,5.05241 2.16565,1.24751 5.53937,2.24461 8.74518,2.58371 1.51048,0.15978 5.14018,0.051 6.85977,-0.20538 1.87342,-0.27923 4.00423,-0.82395 5.65213,-1.44179 2.44752,-0.91763 7.37994,-3.51929 10.47039,-5.52478 0.72602,-0.47114 1.36932,-0.86734 1.42947,-0.88315 0.0601,-0.0159 0.47938,0.53317 0.93243,1.21997 1.53235,2.32293 3.72881,4.20502 6.14094,5.26601 2.65082,1.16599 5.01704,1.61409 8.56445,1.62253 2.80178,0.007 4.32578,-0.14456 7.23767,-0.72295 9.16674,-1.82083 20.03321,-7.65086 26.67508,-14.31105 6.52369,-6.5417 10.52537,-15.12023 11.31246,-24.25566 0.4111,-4.77152 -0.60653,-9.66622 -2.61246,-12.58174 -1.73432,-2.52074 -5.08819,-4.60392 -9.04915,-5.61516 -1.63312,-0.41693 -3.7409,-0.64684 -5.31941,-0.64078 z m 165.38631,0.074 c -5.25174,0.0203 -10.63917,1.09244 -15.81436,3.14646 -13.57249,5.38677 -24.80555,16.78151 -28.47432,28.88499 -0.93992,3.101 -1.49979,7.14037 -1.32678,9.58724 0.38164,5.39843 2.41418,9.00491 6.67492,11.84236 3.81056,2.53765 8.511,3.92171 15.44479,4.54717 1.594,0.14377 7.72704,0.0609 9.75979,-0.13145 10.09621,-0.95551 19.37564,-4.09463 27.86629,-9.42705 7.89773,-4.96011 14.87538,-11.98854 20.4232,-20.57111 l 0.99402,-1.54037 -1.30206,-1.05566 c -0.71681,-0.58046 -1.35881,-1.05567 -1.42543,-1.05567 -0.0665,0 -0.61407,0.54714 -1.21992,1.21586 -8.34046,9.20545 -17.76377,15.96368 -27.15975,19.47848 -9.01884,3.37368 -19.70756,3.76754 -25.47165,0.93654 -1.85074,-0.90903 -3.18617,-2.1485 -4.41153,-4.09533 l -0.25466,-0.40666 1.41302,-0.14786 c 7.82482,-0.80569 19.85797,-5.89167 27.01193,-11.41927 2.53434,-1.95825 5.63134,-5.04854 7.15548,-7.13909 3.1527,-4.32424 4.54903,-10.07003 3.45871,-14.23301 -0.79208,-3.02387 -2.7547,-5.51777 -5.38935,-6.85566 -2.19528,-1.11483 -4.53028,-1.57409 -7.95234,-1.56091 z m -6.83514,11.55482 c 1.85009,-0.0126 2.50625,0.17942 3.25323,0.94476 0.87642,0.89795 1.09416,2.16601 0.67778,3.99673 -1.05992,4.66008 -5.96464,10.12248 -12.0888,13.46078 -2.11621,1.15351 -4.76391,2.0655 -7.17193,2.4769 -0.62303,0.10644 -1.67708,0.2374 -2.3413,0.28753 l -1.20769,0.0904 0.0944,-0.38202 c 1.08916,-4.51178 4.00005,-10.46156 6.84748,-13.98654 1.21082,-1.49898 3.73561,-3.86853 4.97847,-4.67861 2.32802,-1.5175 4.44912,-2.1927 6.95833,-2.20991 z"
         id="path3022"
         style="fill:#2f4248;fill-opacity:1" />
      <path
         d="m 154.59375,59.21875 c -8.8866,0.10363 -16.10235,2.73385 -21.625,7.9375 -5.52267,5.20374 -8.3652,12.34543 -8.53125,21.40625 0.16605,9.06087 3.00858,16.20257 8.53125,21.40625 5.52265,5.20371 12.7384,7.83391 21.625,7.9375 8.88653,-0.10358 16.10229,-2.73379 21.625,-7.9375 5.52261,-5.20368 8.36513,-12.34538 8.53125,-21.40625 -0.16612,-9.06082 -3.00864,-16.20251 -8.53125,-21.40625 -5.52271,-5.20365 -12.73847,-7.83387 -21.625,-7.9375 z m 68.875,0 c -8.8866,0.10363 -16.10234,2.73385 -21.625,7.9375 -5.52267,5.20374 -8.36519,12.34543 -8.53125,21.40625 0.16606,9.06087 3.00858,16.20257 8.53125,21.40625 5.52265,5.20371 12.7384,7.83391 21.625,7.9375 3.89986,0.01 7.63448,-0.75551 11.21875,-2.34375 3.58417,-1.58823 6.5995,-4.03903 9,-7.34375 l -10.28125,-7.65625 c -1.27425,1.90721 -2.8889,3.36716 -4.84375,4.40625 -1.95491,1.0391 -4.15884,1.5806 -6.65625,1.59375 -4.55923,-0.0986 -8.31852,-1.79888 -11.25,-5.09375 -2.93152,-3.29483 -4.43098,-7.59895 -4.53125,-12.90625 0.0921,-5.30725 1.62113,-9.61136 4.59375,-12.90625 2.97259,-3.29481 6.8142,-4.99505 11.5625,-5.09375 2.29025,0.008 4.32626,0.40001 6.09375,1.1875 1.76741,0.78759 3.27508,1.93808 4.5,3.40625 l 9.46875,-7.75 c -2.46791,-3.0005 -5.43057,-5.12047 -8.875,-6.375 -3.44451,-1.25442 -6.78245,-1.85027 -10,-1.8125 z m 102.125,0 c -5.6871,0.0116 -10.62324,1.53407 -14.78125,4.59375 -4.15804,3.05979 -6.32902,7.56142 -6.53125,13.53125 0.13646,4.55225 1.50094,7.90501 4.09375,10.0625 2.5928,2.15755 5.58839,3.77054 9,4.78125 3.41156,1.01076 6.40717,2.04443 9,3.15625 2.59278,1.11187 3.95725,2.91415 4.09375,5.375 -0.10361,1.96969 -1.01875,3.4428 -2.75,4.40625 -1.73131,0.96348 -3.66527,1.4408 -5.78125,1.4375 -2.08479,-0.0132 -4.05005,-0.48552 -5.9375,-1.40625 -1.88749,-0.92071 -3.48568,-2.20454 -4.78125,-3.875 l -8.75,9.625 c 2.64706,2.43333 5.51594,4.21258 8.65625,5.34375 3.14029,1.13116 6.5309,1.6694 10.125,1.65625 5.9386,0.0132 10.97022,-1.47478 15.09375,-4.5 4.12346,-3.02521 6.25989,-7.65357 6.4375,-13.875 -0.13404,-4.78135 -1.45409,-8.25179 -4,-10.4375 -2.54598,-2.18564 -5.49385,-3.75832 -8.84375,-4.6875 -3.34996,-0.92911 -6.29782,-1.89445 -8.84375,-2.90625 -2.54597,-1.01173 -3.89727,-2.72268 -4.03125,-5.15625 0.12823,-2.06993 1.07793,-3.57265 2.84375,-4.46875 1.76579,-0.89601 3.57303,-1.33382 5.4375,-1.3125 1.56026,-0.003 3.17492,0.29796 4.84375,0.90625 1.66877,0.60838 3.01516,1.55313 4.0625,2.8125 l 8.46875,-9.25 c -2.39061,-2.07321 -5.04551,-3.54962 -7.96875,-4.46875 -2.92332,-0.91902 -5.97651,-1.36178 -9.15625,-1.34375 z m 48.53125,0 c -5.6871,0.0116 -10.62324,1.53407 -14.78125,4.59375 -4.15803,3.05979 -6.32903,7.56142 -6.53125,13.53125 0.13646,4.55225 1.50094,7.90501 4.09375,10.0625 2.5928,2.15755 5.5884,3.77054 9,4.78125 3.41157,1.01076 6.40717,2.04443 9,3.15625 2.59278,1.11187 3.95726,2.91415 4.09375,5.375 -0.10361,1.96969 -1.01875,3.4428 -2.75,4.40625 -1.7313,0.96348 -3.66526,1.4408 -5.78125,1.4375 -2.08479,-0.0132 -4.05004,-0.48552 -5.9375,-1.40625 -1.88749,-0.92071 -3.48568,-2.20454 -4.78125,-3.875 l -8.75,9.625 c 2.64706,2.43333 5.51594,4.21258 8.65625,5.34375 3.14029,1.13116 6.5309,1.6694 10.125,1.65625 5.93861,0.0132 10.97022,-1.47478 15.09375,-4.5 4.12346,-3.02521 6.2599,-7.65357 6.4375,-13.875 -0.13404,-4.78135 -1.45409,-8.25179 -4,-10.4375 -2.54598,-2.18564 -5.49385,-3.75832 -8.84375,-4.6875 -3.34996,-0.92911 -6.29782,-1.89445 -8.84375,-2.90625 -2.54597,-1.01173 -3.89728,-2.72268 -4.03125,-5.15625 0.12822,-2.06993 1.07793,-3.57265 2.84375,-4.46875 1.76579,-0.89601 3.57302,-1.33382 5.4375,-1.3125 1.56026,-0.003 3.17492,0.29796 4.84375,0.90625 1.66877,0.60838 3.01515,1.55313 4.0625,2.8125 l 8.46875,-9.25 c -2.39062,-2.07321 -5.04551,-3.54962 -7.96875,-4.46875 -2.92331,-0.91902 -5.97651,-1.36178 -9.15625,-1.34375 z M 20.0625,60.625 l 0,55.875 12.3125,0 0,-21.78125 9,0 c 6.006007,0.10525 10.924049,-1.11767 14.75,-3.65625 3.825867,-2.53852 5.779607,-7.02369 5.90625,-13.46875 -0.159528,-6.50746 -2.233412,-11.00578 -6.25,-13.46875 -4.016666,-2.46287 -9.008775,-3.62161 -14.96875,-3.5 l -20.75,0 z m 53,0 0,55.875 12.3125,0 0,-22.34375 6.0625,0 11.6875,22.34375 14.75,0 -14.1875,-23.59375 c 3.95576,-0.77107 6.95793,-2.51577 9,-5.25 2.04197,-2.73418 3.05258,-6.09516 3.0625,-10.0625 -0.16282,-6.40388 -2.24985,-10.86763 -6.25,-13.375 -4.00022,-2.50726 -8.92817,-3.70056 -14.8125,-3.59375 l -21.625,0 z m 181.0625,0 0,55.875 39.375,0 0,-11.375 -27.0625,0 0,-11.34375 24.21875,0 0,-11.375 -24.21875,0 0,-10.40625 25.625,0 0,-11.375 -37.9375,0 z m -99.53125,9.9375 c 5.31546,0.0987 9.52905,1.79894 12.625,5.09375 3.09587,3.29489 4.68254,7.599 4.75,12.90625 -0.0675,5.3073 -1.65413,9.61142 -4.75,12.90625 -3.09595,3.29486 -7.30954,4.99511 -12.625,5.09375 -5.31553,-0.0986 -9.52911,-1.79888 -12.625,-5.09375 -3.09593,-3.29483 -4.68261,-7.59895 -4.75,-12.90625 0.0674,-5.30725 1.65406,-9.61136 4.75,-12.90625 3.09588,-3.29481 7.30947,-4.99505 12.625,-5.09375 z M 32.375,71.03125 l 6.3125,0 c 2.512219,-0.0871 4.865904,0.29476 7.0625,1.125 2.19654,0.83034 3.355283,2.64415 3.5,5.4375 -0.09046,2.55831 -1.000659,4.33263 -2.71875,5.3125 -1.718159,0.97994 -3.708088,1.45232 -5.96875,1.40625 l -8.1875,0 0,-13.28125 z m 53,0 8.03125,0 c 2.36588,-0.0805 4.527,0.31942 6.46875,1.15625 1.9417,0.8369 2.97698,2.59149 3.09375,5.3125 -0.14965,2.91838 -1.29687,4.72726 -3.46875,5.40625 -2.17194,0.67907 -4.47623,0.96381 -6.875,0.84375 l -7.25,0 0,-12.71875 z"
         transform="translate(18,241.19682)"
         id="path3021"
         style="font-size:140.94732666px;font-style:normal;font-weight:bold;line-height:125%;letter-spacing:5.73999977px;word-spacing:0px;fill:#6c7a7f;fill-opacity:1;stroke:none;font-family:Avenir LT Std 65 Medium;-inkscape-font-specification:'Avenir LT Std 65 Medium, Bold'" />
    </g>
  </g>
</svg>
