<svg xmlns="http://www.w3.org/2000/svg" viewBox="0 0 20 16" fill="none">
  <path d="m 18.929851,7.8298076 c 0.146353,6.3374604 -6.323147,7.7778444 -7.477912,7.7778444 -2.1072726,-0.12875 5.117678,0.356249 5.051698,-7.8700618 -0.604672,-8.00397349 -7.0772706,-7.5631189 -4.8573,-7.43039556 1.606,-0.11514225 6.897485,1.26254596 7.283514,7.52261296 z" fill="crimson" stroke-width="2"/>
  <path fill-rule="evenodd" clip-rule="evenodd" d="m 8.1147562,2.0529828 c 3.3491698,0 6.0641328,2.6768627 6.0641328,5.978953 0,3.3021122 -2.714963,5.9789202 -6.0641328,5.9789202 -3.3491473,0 -6.0641772,-2.676808 -6.0641772,-5.9789202 0.00539,-3.2998861 2.7172656,-5.9736408 6.0641772,-5.978953 z m 0,-1.73582719 c -4.3214836,0 -7.82474038,3.45401849 -7.82474038,7.71478019 0,4.2607282 3.50325678,7.7147452 7.82474038,7.7147452 4.3214498,0 7.8246998,-3.454017 7.8246998,-7.7147452 0,-2.0460914 -0.824392,-4.0083672 -2.291756,-5.4551746 C 12.180225,1.1299648 10.190013,0.31715561 8.1147562,0.31715561 Z M 6.9374563,8.2405985 4.6718685,10.485852 6.0086814,11.876728 8.3170035,9.6007911 10.625337,11.876728 11.962138,10.485852 9.6965508,8.2405985 11.962138,6.0068066 10.573246,4.6374335 8.3170035,6.8734297 6.0607607,4.6374335 4.6718685,6.0068066 Z" fill="crimson" stroke-width="2"/>
</svg>