<svg width="20" height="16" viewBox="0 0 20 16" fill="none" xmlns="http://www.w3.org/2000/svg">
<path fill-rule="evenodd" clip-rule="evenodd" d="M14.7769 14.7337L8.65192 2.48369C8.32946 1.83877 7.40913 1.83877 7.08667 2.48369L0.961669 14.7337C0.670775 15.3155 1.09383 16 1.74429 16H13.9943C14.6448 16 15.0678 15.3155 14.7769 14.7337ZM3.16007 14.25L7.86929 4.83156L12.5785 14.25H3.16007ZM8.74429 11.625V13.375H6.99429V11.625H8.74429ZM6.99429 10.75V7.25H8.74429V10.75H6.99429Z" fill="#EC7211"/>
<path d="M11.1991 2.95238C10.8809 2.31467 10.3537 1.80526 9.7055 1.509L11.041 1.06978C11.6883 0.949814 12.337 1.27263 12.6317 1.86141L17.6136 11.8161C18.3527 13.2929 17.5938 15.0804 16.018 15.5745C16.4044 14.4507 16.3231 13.2188 15.7924 12.1555L11.1991 2.95238Z" fill="#EC7211"/>
</svg>